<svg xmlns="http://www.w3.org/2000/svg" width="50" height="51" fill="none"><path fill="#6F1E3F" d="M30.16 4.973c-.479 0-.95.025-1.418.066a16.294 16.294 0 0 1 0 32.464c.467.04.94.065 1.417.065a16.297 16.297 0 0 0 0-32.595Z"/><path fill="#38963D" d="M27.325 37.568c9 0 16.297-7.297 16.297-16.297 0-9.001-7.297-16.298-16.297-16.298-9.001 0-16.298 7.297-16.298 16.298 0 9 7.297 16.297 16.298 16.297Z"/><path fill="#38963D" d="M27.327 33.316c6.653 0 12.046-5.393 12.046-12.045 0-6.653-5.393-12.046-12.046-12.046S15.281 14.618 15.281 21.27s5.393 12.045 12.046 12.045Z"/><path fill="#38963D" d="M27.264 31.19c5.479 0 9.92-4.44 9.92-9.92 0-5.478-4.441-9.92-9.92-9.92s-9.92 4.442-9.92 9.92c0 5.48 4.441 9.92 9.92 9.92Z"/><path fill="#38963D" d="M20.239 47.488c9 0 16.297-7.297 16.297-16.297s-7.297-16.297-16.297-16.297c-9.001 0-16.298 7.296-16.298 16.297 0 9 7.297 16.297 16.298 16.297Z"/><path fill="#6F1E3F" d="M23.073 14.894c-.478 0-.95.024-1.417.065a16.294 16.294 0 0 1 0 32.464c.467.04.94.065 1.417.065a16.297 16.297 0 1 0 0-32.594Z"/><path fill="#38963D" d="M20.241 43.237c6.653 0 12.046-5.394 12.046-12.046 0-6.653-5.393-12.046-12.046-12.046S8.195 24.538 8.195 31.191c0 6.652 5.393 12.046 12.046 12.046Z"/><path fill="#38963D" d="M20.178 41.11c5.479 0 9.92-4.44 9.92-9.92 0-5.478-4.441-9.92-9.92-9.92s-9.92 4.442-9.92 9.92c0 5.48 4.441 9.92 9.92 9.92Z"/><path fill="#6F1E3F" d="M20.176 18.436a12.755 12.755 0 1 0 12.755 12.755 12.77 12.77 0 0 0-12.755-12.755Zm0 24.092a11.337 11.337 0 1 1 11.337-11.337 11.35 11.35 0 0 1-11.337 11.337Z"/><path fill="#6F1E3F" d="M47.104 21.27A17.025 17.025 0 0 0 28.653 4.328 16.941 16.941 0 0 0 10.806 17.01a17 17 0 0 0 9.372 31.186c.47 0 .935-.025 1.396-.062.474.04.957.062 1.439.062A17.036 17.036 0 0 0 39.478 35.45a16.94 16.94 0 0 0 7.626-14.18Zm-2.23-4.96h-1.347a16.801 16.801 0 0 0-.812-2.125h1.259c.352.685.653 1.396.9 2.126Zm-.622 4.252a16.959 16.959 0 0 0-.354-2.834h1.378c.218.93.35 1.88.393 2.834h-1.417Zm-.015 1.417h1.428a15.681 15.681 0 0 1-.388 2.835h-1.39c.196-.934.313-1.882.35-2.835Zm-.709 4.252h1.354c-.245.73-.544 1.44-.895 2.125H42.71c.32-.689.592-1.4.816-2.125h.001Zm-.373-13.463h-1.173a17.027 17.027 0 0 0-1.457-2.126h.962c.616.66 1.173 1.37 1.667 2.126h.001Zm-3.173-3.543h-.727a17.1 17.1 0 0 0-2.451-2.024 15.595 15.595 0 0 1 3.178 2.024ZM27.264 5.682a15.569 15.569 0 0 1 12.727 24.564 16.879 16.879 0 0 0-.833-4.388A12.754 12.754 0 0 0 16.385 14.61l.009.005c-1.31.3-2.58.754-3.784 1.354A15.524 15.524 0 0 1 27.264 5.682Zm9.902 24.8a16.961 16.961 0 0 0-.354-2.834h1.378c.218.93.35 1.88.394 2.834h-1.418Zm1.148-6.707a17.027 17.027 0 0 0-16.747-9.528c-.458-.038-.92-.062-1.389-.062-.615 0-1.23.035-1.842.101a11.326 11.326 0 0 1 19.978 9.489Zm-5.418-4.63h-.726a17.13 17.13 0 0 0-2.453-2.025 15.656 15.656 0 0 1 3.179 2.025Zm1.506 1.417c.615.66 1.173 1.37 1.666 2.126h-1.172a17.103 17.103 0 0 0-1.457-2.126h.963Zm2.489 3.543c.351.685.651 1.396.897 2.126h-1.346a16.905 16.905 0 0 0-.813-2.126h1.262Zm-.447 12.046h1.347c-.246.73-.546 1.44-.897 2.126h-1.262c.318-.69.59-1.4.813-2.126Zm.366-1.417a16.96 16.96 0 0 0 .354-2.835h1.418a15.553 15.553 0 0 1-.394 2.835H36.81ZM4.59 31.19a15.589 15.589 0 1 1 15.588 15.588A15.607 15.607 0 0 1 4.59 31.191Zm27.58 12.046h.726c-.974.8-2.041 1.48-3.179 2.025.879-.598 1.7-1.276 2.453-2.025Zm2.232-1.418h-.963a17.112 17.112 0 0 0 1.457-2.125h1.172a15.73 15.73 0 0 1-1.666 2.125Zm5.466-8.406c.037-.28.067-.564.09-.85a17 17 0 0 0 2.017-2.79h1.193a15.55 15.55 0 0 1-3.3 3.64Z"/><path fill="#6F1E3F" d="m26.05 24.313-2.405 2.409a5.633 5.633 0 0 0-6.944 0l-2.406-2.41-1.002 1.002 2.408 2.405a5.633 5.633 0 0 0 0 6.944l-2.405 2.405 1.002 1.002 2.405-2.409a5.633 5.633 0 0 0 6.944 0l2.406 2.41 1.002-1.003-2.409-2.405a5.634 5.634 0 0 0 0-6.944l2.406-2.406-1.002-1Zm-5.876 11.13a4.25 4.25 0 1 1 0-8.503 4.25 4.25 0 0 1 0 8.502Z"/></svg>