<svg xmlns="http://www.w3.org/2000/svg" width="50" height="51" fill="none"><path fill="#38963D" d="M6.941 16.198c8.243.182 20.925.356 29.167.113 1.856-.053 7.31-.159 8.114 1.584.704 1.53.59 3.515.69 5.181.219 3.75.188 7.508.15 11.266-.03 2.924.917 6.674-3.09 6.69-3.44.014-8.66.03-12.099.037"/><path fill="#fff" d="M29.881 41.069c.569 0 1.182-.008 1.834-.008.235-2.939.31-5.939.22-8.916-.016-.47 0-1.015.007-1.591.053-2.712.121-6.091-1.826-8.303-2.083-2.371-6.106-3.508-9.333-4.417-.553-.159-1.068-.303-1.523-.44l-.364-.113c-.992-.303-2-.614-3.015-.917a983.236 983.236 0 0 1-8.924-.159L29.881 41.07Z" opacity=".1"/><path fill="#38963D" d="M4.977 17.743a1.595 1.595 0 0 1 1.962-1.545c3.932.909 7.803 2.113 11.66 3.295 2.78.856 7.863 1.947 9.848 4.205 1.742 1.985 1.19 6.098 1.273 8.515a78.94 78.94 0 0 1-.265 9.454c-.144 1.614-.091 4.137-1.046 5.553-.992 1.478-3.356.485-4.682.076-3.59-1.098-7.144-2.356-10.659-3.659-1.97-.727-4.038-1.416-5.909-2.386-2.56-1.326-2.235-3.197-2.273-5.735a305.78 305.78 0 0 1-.022-5.894c.015-3.962.075-7.917.113-11.879Z"/><path fill="#38963D" d="M25.783 36.986c1.067 0 1.932-1.092 1.932-2.44 0-1.347-.865-2.44-1.932-2.44s-1.931 1.093-1.931 2.44c0 1.348.864 2.44 1.931 2.44ZM5.258 16.857c.394-2.743 2.901-3.47 5.318-3.674 1.697-.137 3.401-.084 5.098-.069.872.008 1.561-.128 1.508.932-.045.864-.894 1.667-1.629 2-1.038.477-2.227.447-3.37.417-1.675-.053-3.342-.106-5.016-.152"/><path fill="#38963D" d="M16.602 16.41c1.325-4.379 1.81-8.394 1.439-12.849a.922.922 0 0 1 .909-1.007c5.197-.046 10.205.083 15.394.045a.919.919 0 0 1 .864 1.258c-1.523 3.795-2.728 7.477-2.591 12.485"/><path fill="#38963D" d="M41.722 7.978a18.405 18.405 0 0 0-1.56 4.288 16.946 16.946 0 0 0-.387 2.333c-.046.508.045 1.235-.41 1.591-.257.197-.613.205-.939.205-1.568-.008-3.136-.023-4.704-.03-.334 0-.682-.008-.97-.182-.894-.538-.205-2.326-.083-3.084.197-1.22.409-2.431.72-3.628.15-.576.22-1.599.522-2.106.576-.94 2.591-.296 3.5-.296 1.258.008 2.508.015 3.758.015a.622.622 0 0 1 .553.894Z"/><path fill="#fff" d="M20.863 16.084c.114-1.113.326-2.265 1.069-3.212.742-.947 2.143-1.621 3.484-1.379 1.137.205 1.985 1.015 2.38 1.902.393.886.416 1.856.439 2.803m6.495-3.015c-.447-.205-1.341-.44-1.796-.122-.47.334-.417 1.16-.454 1.682-.03.493.03 1.038.378 1.387.265.272.644.386 1.015.447 1.03.166 2.41.174 2.41-1.114 0-.992-.675-1.879-1.553-2.28Z"/><path fill="#fff" d="M36.048 15.88c.045.037-.197.378-.796.545a3.64 3.64 0 0 1-1.038.106c-.394-.03-.773-.007-1.28-.174a1.104 1.104 0 0 1-.591-.515 2.5 2.5 0 0 1-.235-.606 2.567 2.567 0 0 1-.045-1.06c.106-.6.363-.895.416-.865.076.03-.045.364-.053.894 0 .265.03.576.137.894.053.16.128.326.212.47.09.144.182.227.34.288.311.114.773.136 1.114.182.357.038.675.038.94.015.538-.046.833-.243.879-.174Z"/><path fill="#6F1E3F" d="M26.744 48.539c-.955 0-1.97-.334-2.72-.576-.16-.053-.318-.106-.454-.144-3.114-.955-6.41-2.083-10.69-3.667-.356-.136-.72-.265-1.083-.394-1.637-.59-3.326-1.204-4.887-2.015-2.568-1.333-2.568-3.22-2.56-5.401v-.818c-.023-1.78-.03-3.713-.023-5.91.008-2.863.046-5.727.076-8.59l.038-3.288a2.16 2.16 0 0 1 .825-1.675 2.144 2.144 0 0 1 1.819-.401c3.825.886 7.644 2.06 11.333 3.197l.364.114c.462.143.992.295 1.56.454 2.864.81 6.78 1.917 8.546 3.917 1.522 1.735 1.462 4.757 1.416 7.182a31.291 31.291 0 0 0-.007 1.674 76.654 76.654 0 0 1-.273 9.523c-.03.303-.045.644-.068 1-.091 1.575-.212 3.538-1.068 4.803-.538.765-1.319 1.015-2.144 1.015ZM5.532 17.75l-.038 3.288c-.038 2.863-.068 5.72-.076 8.583-.008 2.19 0 4.114.023 5.886.007.288 0 .561 0 .834 0 2.113-.008 3.394 1.97 4.416 1.5.78 3.15 1.38 4.757 1.955.364.136.727.265 1.09.401 4.266 1.576 7.546 2.705 10.637 3.652.152.046.31.099.477.151 1.546.508 2.985.887 3.584-.007.682-1.015.795-2.81.879-4.258.022-.37.045-.72.068-1.038.28-3.09.371-6.242.265-9.386a33.583 33.583 0 0 1 .008-1.735c.045-2.234.098-5.022-1.144-6.431-1.546-1.758-5.28-2.819-8.015-3.584a40.34 40.34 0 0 1-1.584-.462l-.363-.114c-3.667-1.128-7.463-2.295-11.25-3.166-.311-.069-.637 0-.887.197s-.401.492-.401.818Z"/><path fill="#6F1E3F" d="M5.257 17.41c-.023 0-.053 0-.076-.008a.557.557 0 0 1-.47-.62c.622-4.334 5.046-4.281 10.652-4.213.674.008 1.364.015 2.076.015.303 0 .553.25.553.553 0 .303-.25.553-.553.553-.72 0-1.417-.007-2.091-.015-5.955-.068-9.091.046-9.553 3.273a.545.545 0 0 1-.538.462Z"/><path fill="#6F1E3F" d="M29.88 41.622a.55.55 0 0 1-.008-1.099l12.098-.037c.91 0 1.545-.212 1.947-.637.765-.803.697-2.424.629-3.992a26.017 26.017 0 0 1-.038-1.523c.045-4.008.06-7.621-.152-11.227-.022-.356-.03-.72-.045-1.099-.038-1.363-.083-2.772-.599-3.886-.159-.34-1.174-1.447-7.598-1.265-9.318.273-23.523.007-29.197-.114a.55.55 0 0 1 .023-1.098c4.424.098 19.583.394 29.136.113 5.144-.151 7.97.47 8.629 1.902.606 1.31.651 2.909.697 4.31.007.364.023.72.045 1.069.212 3.636.197 7.272.152 11.303-.008.47.015.962.038 1.462.075 1.795.159 3.651-.932 4.795-.621.652-1.523.97-2.743.978l-12.083.045Z"/><path fill="#6F1E3F" d="M16.599 16.955a.578.578 0 0 1-.16-.022.562.562 0 0 1-.37-.69c1.34-4.44 1.78-8.333 1.416-12.636a1.468 1.468 0 0 1 .386-1.129 1.448 1.448 0 0 1 1.069-.477c2.674-.023 5.333 0 7.909.023 2.439.022 4.962.045 7.485.03.492-.023.954.235 1.227.644.273.401.333.917.151 1.363-1.37 3.417-2.69 7.182-2.553 12.266a.556.556 0 0 1-.538.568c-.31-.015-.56-.235-.568-.538-.144-5.295 1.22-9.182 2.629-12.705.06-.151 0-.28-.038-.333a.371.371 0 0 0-.31-.159c-2.53.015-5.054-.008-7.5-.03a448.982 448.982 0 0 0-7.894-.023.35.35 0 0 0-.266.121.381.381 0 0 0-.098.296C18.955 7.97 18.5 12 17.114 16.577a.53.53 0 0 1-.515.378Z"/><path fill="#6F1E3F" d="M39.662 16.91h-.03a.55.55 0 0 1-.523-.576l.008-.144c.09-1.803.242-4.825 2.113-8.454l-.06-.652v.553l-7.152-.03a.55.55 0 0 1 .008-1.098l7.151.03c.41 0 .78.212.993.56.212.349.227.773.038 1.13-1.758 3.424-1.902 6.181-1.993 8.007l-.007.144a.55.55 0 0 1-.546.53Zm-11.432-.349a.364.364 0 0 1-.364-.363c-.015-.902-.03-1.826-.401-2.66-.311-.689-1.023-1.5-2.114-1.696-1.288-.235-2.53.485-3.129 1.25-.697.879-.886 1.97-.992 3.015-.023.204-.197.356-.402.326a.36.36 0 0 1-.326-.402c.114-1.106.334-2.371 1.152-3.401.894-1.137 2.477-1.758 3.833-1.516 1.144.205 2.16 1.016 2.652 2.114.431.962.454 2.015.47 2.94-.008.227-.167.393-.38.393.008 0 .008 0 0 0Zm7.88.114a.351.351 0 0 1-.145-.03.365.365 0 0 1-.197-.477c.303-.735.13-1.538-.462-2.144-.545-.553-1.515-.947-2.454-.576a.368.368 0 0 1-.478-.205.366.366 0 0 1 .205-.477c1.09-.44 2.371-.152 3.25.735.81.826 1.045 1.924.621 2.94a.364.364 0 0 1-.34.234ZM21.667 7.069c-.037-.045.243-.371.849-.697.598-.326 1.53-.606 2.583-.59 1.053.014 1.977.325 2.568.673.591.341.864.675.826.728-.053.068-.394-.152-.985-.387a6.872 6.872 0 0 0-4.833-.076c-.606.205-.962.41-1.008.349Z"/><path fill="#6F1E3F" d="M38.948 10.327c-.083.129-.84-.25-1.833-.447-.993-.212-1.841-.167-1.864-.318-.038-.137.864-.425 1.97-.197 1.106.22 1.81.848 1.727.962ZM25.784 37.35c-1.273 0-2.303-1.258-2.303-2.804 0-1.545 1.03-2.803 2.302-2.803 1.273 0 2.303 1.258 2.303 2.803 0 1.546-1.037 2.803-2.302 2.803Zm0-4.872c-.864 0-1.569.932-1.569 2.068 0 1.144.705 2.069 1.569 2.069.863 0 1.568-.932 1.568-2.069-.008-1.143-.705-2.068-1.569-2.068Zm12.552 6.477c-.008-.075.432-.166 1.121-.34.667-.182 1.652-.463 2.334-1.205.681-.75.742-1.773.765-2.462.015-.712.007-1.167.083-1.175.068-.007.205.425.288 1.16.038.363.053.818-.03 1.318-.084.5-.296 1.06-.712 1.507-.841.91-1.947 1.122-2.652 1.22-.735.083-1.19.038-1.197-.023Zm-11.471-9.833c-.091.008-.129-.644-.227-1.629-.061-.484-.167-1.083-.569-1.515-.386-.44-1.075-.644-1.818-.81-3.023-.803-5.379-1.63-5.348-1.758.038-.151 2.492.462 5.462 1.25.742.167 1.568.394 2.068 1 .492.606.545 1.296.568 1.803.008 1.046-.083 1.652-.136 1.66Zm-.727 12.167c.038 0 .068.272.09.772.008.25.023.553.038.91 0 .348.054.757-.06 1.242a1.363 1.363 0 0 1-.371.704c-.212.213-.508.326-.796.364-.583.076-1.151-.053-1.735-.174-1.166-.258-2.401-.712-3.674-1.167a217.322 217.322 0 0 1-6.485-2.553c-1.644-.682-2.651-1.136-2.62-1.204.03-.069 1.082.265 2.757.856 1.681.59 3.977 1.447 6.522 2.401 1.28.462 2.485.917 3.607 1.197.56.136 1.105.258 1.568.212.477-.03.765-.325.863-.727.114-.386.099-.795.122-1.151.022-.357.037-.66.053-.91.045-.5.083-.772.12-.772ZM7.44 25.206c-.143 0-.264-1.107-.264-2.47 0-1.364.113-2.47.265-2.47.144 0 .265 1.106.265 2.47-.007 1.363-.121 2.47-.265 2.47Z"/></svg>