<svg xmlns="http://www.w3.org/2000/svg" width="50" height="51" fill="none"><path fill="#38963D" fill-rule="evenodd" d="M42.184 14.329H6.25a4.682 4.682 0 0 0-3.314 1.373 4.682 4.682 0 0 0-1.373 3.314v25a4.68 4.68 0 0 0 1.373 3.314 4.682 4.682 0 0 0 3.314 1.374h37.5a4.682 4.682 0 0 0 3.314-1.374 4.682 4.682 0 0 0 1.373-3.314v-25a4.681 4.681 0 0 0-1.373-3.314 4.682 4.682 0 0 0-3.314-1.373h-1.566Z" clip-rule="evenodd"/><path fill="#6F1E3F" fill-rule="evenodd" d="M42.138 17.454h1.612a1.559 1.559 0 0 1 1.563 1.563v25a1.562 1.562 0 0 1-1.563 1.562H6.25c-.414 0-.813-.164-1.105-.458a1.558 1.558 0 0 1-.457-1.105v-25a1.559 1.559 0 0 1 1.563-1.563h1.538c.861 0 1.563-.7 1.563-1.562 0-.862-.702-1.562-1.563-1.562H6.25a4.682 4.682 0 0 0-3.314 1.373 4.682 4.682 0 0 0-1.373 3.314v25a4.68 4.68 0 0 0 1.373 3.314 4.682 4.682 0 0 0 3.314 1.374h37.5a4.682 4.682 0 0 0 3.314-1.374 4.682 4.682 0 0 0 1.373-3.314v-25a4.681 4.681 0 0 0-1.373-3.314 4.682 4.682 0 0 0-3.314-1.373h-1.612a1.563 1.563 0 0 0 0 3.125Z" clip-rule="evenodd"/><path fill="#6F1E3F" fill-rule="evenodd" d="M17.224 33.963 8.53 39.552a1.562 1.562 0 0 0 1.69 2.628l9.482-6.095 2.29 1.964a4.688 4.688 0 0 0 6.102 0l2.29-1.964 9.27 5.96a1.562 1.562 0 1 0 1.691-2.629l-8.484-5.453 8.763-7.511a1.564 1.564 0 1 0-2.035-2.372L26.06 35.677a1.561 1.561 0 0 1-2.032 0L10.54 24.117a1.563 1.563 0 0 0-2.033 2.374l8.716 7.472Z" clip-rule="evenodd"/><path fill="#fff" d="M25 26.829c6.904 0 12.5-5.597 12.5-12.5 0-6.904-5.596-12.5-12.5-12.5s-12.5 5.596-12.5 12.5c0 6.903 5.596 12.5 12.5 12.5Z"/><path fill="#6F1E3F" fill-rule="evenodd" d="M25 1.829c-6.898 0-12.5 5.601-12.5 12.5 0 6.898 5.602 12.5 12.5 12.5s12.5-5.602 12.5-12.5c0-6.899-5.602-12.5-12.5-12.5Zm0 3.125c5.173 0 9.375 4.201 9.375 9.375 0 5.173-4.202 9.375-9.375 9.375s-9.375-4.202-9.375-9.375c0-5.174 4.202-9.375 9.375-9.375Z" clip-rule="evenodd"/><path fill="#6F1E3F" fill-rule="evenodd" d="m19.207 15.557 3.002 3.001c.61.611 1.6.611 2.209 0l6.25-6.25a1.564 1.564 0 0 0-2.21-2.21l-5.145 5.146-1.897-1.897a1.563 1.563 0 0 0-2.209 2.21Z" clip-rule="evenodd"/></svg>