<svg xmlns="http://www.w3.org/2000/svg" width="50" height="51" fill="none"><path fill="#38963D" d="M31.556 13.738 20.688 7.464c-1.394-.805-3.137.201-3.137 1.81v2.284H6.973a1.941 1.941 0 0 0-1.942 1.941v22.557c0 1.073.87 1.942 1.942 1.942h4.124c1.072 0 1.941-.87 1.941-1.942v-14.55c0-1.072.87-1.941 1.942-1.941h2.57v2.259c0 1.61 1.744 2.616 3.138 1.811l10.868-6.275c1.394-.805 1.394-2.817 0-3.622Z"/><path fill="#6F1E3F" d="M11.098 38.43H6.975A2.376 2.376 0 0 1 4.6 36.056l-.01-15.713a.432.432 0 1 1 .864 0l.011 15.713c0 .833.677 1.51 1.51 1.51h4.123c.833 0 1.51-.678 1.51-1.51v-14.55a2.376 2.376 0 0 1 2.373-2.374h2.572c.238 0 .432.194.432.432v2.26c0 .6.31 1.137.83 1.437.519.3 1.139.3 1.659 0l10.867-6.275c.52-.3.83-.837.83-1.437 0-.6-.31-1.137-.83-1.437L20.474 7.838c-.52-.3-1.14-.3-1.66 0s-.83.837-.83 1.437v2.282a.432.432 0 0 1-.431.432H6.975c-.833 0-1.51.677-1.51 1.51v3.214a.432.432 0 1 1-.864 0V13.5a2.376 2.376 0 0 1 2.374-2.374H17.12v-1.85c0-.913.471-1.73 1.261-2.186a2.498 2.498 0 0 1 2.524 0l10.867 6.275a2.498 2.498 0 0 1 1.262 2.185c0 .912-.472 1.73-1.262 2.185L20.906 24.01a2.498 2.498 0 0 1-2.524 0 2.498 2.498 0 0 1-1.261-2.185v-1.828h-2.14c-.832 0-1.509.678-1.509 1.51v14.55a2.376 2.376 0 0 1-2.374 2.374Z"/><path fill="#38963D" d="M33.806 10.887 22.938 4.612c-1.394-.805-3.137.201-3.137 1.811v2.283H9.223c-1.073 0-1.942.87-1.942 1.942v22.557c0 1.072.87 1.941 1.942 1.941h4.124a1.941 1.941 0 0 0 1.941-1.941v-14.55c0-1.073.87-1.942 1.942-1.942h2.57v2.26c0 1.61 1.744 2.615 3.138 1.81l10.868-6.274c1.394-.805 1.394-2.817 0-3.622Z"/><path fill="#6F1E3F" d="M13.345 35.578H9.221a2.376 2.376 0 0 1-2.373-2.373v-2.782a.432.432 0 1 1 .864 0v2.782c0 .832.677 1.51 1.51 1.51h4.123c.832 0 1.51-.678 1.51-1.51v-14.55a2.376 2.376 0 0 1 2.373-2.374H19.8c.239 0 .432.193.432.432v2.26c0 .6.31 1.136.83 1.436.52.3 1.14.3 1.66 0l10.867-6.274c.52-.3.83-.837.83-1.437 0-.6-.31-1.137-.83-1.437l-5.117-2.954a.432.432 0 0 1 .432-.749l5.117 2.954a2.498 2.498 0 0 1 1.262 2.186c0 .912-.472 1.729-1.262 2.185l-10.868 6.274a2.497 2.497 0 0 1-2.523 0 2.498 2.498 0 0 1-1.262-2.185v-1.827h-2.139c-.832 0-1.51.677-1.51 1.51v14.55a2.376 2.376 0 0 1-2.373 2.373Z"/><path fill="#6F1E3F" d="M7.28 26.362a.432.432 0 0 1-.432-.432V10.648A2.376 2.376 0 0 1 9.22 8.274h10.146v-1.85c0-.913.472-1.73 1.262-2.186a2.498 2.498 0 0 1 2.523 0l1.766 1.02a.432.432 0 0 1-.432.748l-1.766-1.02c-.52-.3-1.14-.3-1.659 0-.52.3-.83.837-.83 1.437v2.283a.432.432 0 0 1-.432.432H9.221c-.832 0-1.51.677-1.51 1.51V25.93a.432.432 0 0 1-.431.432Z"/><path fill="#38963D" d="m18.44 36.794 10.868 6.275c1.394.805 3.137-.201 3.137-1.811v-2.283h10.578c1.072 0 1.942-.87 1.942-1.942V14.476c0-1.072-.87-1.941-1.942-1.941H38.9a1.941 1.941 0 0 0-1.941 1.941v14.55c0 1.073-.87 1.942-1.942 1.942h-2.571v-2.26c0-1.61-1.743-2.615-3.137-1.81L18.44 33.172c-1.394.805-1.394 2.817 0 3.622Z"/><path fill="#6F1E3F" d="M30.352 43.785a2.52 2.52 0 0 1-1.262-.342l-10.867-6.274a2.498 2.498 0 0 1-1.262-2.186c0-.912.472-1.729 1.262-2.185l10.867-6.275a2.499 2.499 0 0 1 2.524 0 2.498 2.498 0 0 1 1.261 2.186v1.827h2.14c.832 0 1.509-.677 1.509-1.51v-14.55a2.376 2.376 0 0 1 2.373-2.374h4.124a2.376 2.376 0 0 1 2.374 2.374l.011 15.713a.432.432 0 0 1-.864 0l-.011-15.713c0-.832-.677-1.51-1.51-1.51h-4.123c-.833 0-1.51.678-1.51 1.51v14.55a2.376 2.376 0 0 1-2.374 2.374h-2.57a.432.432 0 0 1-.433-.432v-2.26c0-.6-.31-1.136-.83-1.436-.519-.3-1.14-.3-1.659 0l-10.867 6.274c-.52.3-.83.837-.83 1.437 0 .6.31 1.137.83 1.437l10.867 6.274c.52.3 1.14.3 1.66 0s.83-.837.83-1.437v-2.282c0-.239.193-.432.431-.432h10.578c.833 0 1.51-.678 1.51-1.51V33.82a.432.432 0 1 1 .864 0v3.214a2.376 2.376 0 0 1-2.374 2.374H32.875v1.85c0 .913-.471 1.73-1.261 2.186a2.52 2.52 0 0 1-1.262.342Z"/><path fill="#38963D" d="m16.194 39.646 10.868 6.274c1.394.805 3.137-.201 3.137-1.811v-2.283h10.578a1.941 1.941 0 0 0 1.941-1.941V17.327a1.941 1.941 0 0 0-1.941-1.941h-4.124c-1.072 0-1.941.87-1.941 1.942v14.55c0 1.072-.87 1.941-1.942 1.941H30.2V31.56c0-1.61-1.743-2.616-3.137-1.811l-10.868 6.274c-1.394.805-1.394 2.818 0 3.623Z"/><path fill="#6F1E3F" d="M21.309 43.032a.43.43 0 0 1-.216-.058l-5.117-2.954a2.498 2.498 0 0 1-1.261-2.185c0-.913.471-1.73 1.261-2.186l10.868-6.274a2.497 2.497 0 0 1 2.523 0 2.498 2.498 0 0 1 1.262 2.185v1.827h2.14c.832 0 1.509-.677 1.509-1.51v-14.55a2.376 2.376 0 0 1 2.373-2.373h4.124a2.376 2.376 0 0 1 2.374 2.373v2.782a.432.432 0 1 1-.864 0v-2.782c0-.832-.677-1.51-1.51-1.51h-4.124c-.832 0-1.51.678-1.51 1.51v14.55a2.376 2.376 0 0 1-2.373 2.374h-2.57a.432.432 0 0 1-.433-.432V31.56c0-.6-.31-1.137-.83-1.437-.519-.3-1.14-.3-1.659 0L16.41 36.397c-.52.3-.83.838-.83 1.438s.31 1.137.83 1.437l5.116 2.954a.432.432 0 0 1-.216.806Z"/><path fill="#6F1E3F" d="M28.107 46.636c-.434 0-.867-.114-1.262-.342l-1.766-1.019a.432.432 0 1 1 .432-.748l1.766 1.019c.52.3 1.14.3 1.66 0 .519-.3.829-.837.829-1.437v-2.283c0-.238.193-.432.432-.432h10.578c.832 0 1.51-.677 1.51-1.51V24.603a.432.432 0 1 1 .864 0v15.283a2.376 2.376 0 0 1-2.374 2.373H30.63v1.85c0 .913-.472 1.73-1.262 2.186a2.517 2.517 0 0 1-1.261.342Z"/></svg>