<svg xmlns="http://www.w3.org/2000/svg" width="1439" height="919" fill="none"><g clip-path="url(#a)"><g clip-path="url(#b)"><path fill="url(#c)" d="M0 409.706v841.524h1438.73V-206.823C928.765-211.213 108.311 336.173 0 409.706Z"/><path fill="#8D645B" d="M60.173 619.606c26.325-13.719 29.183-54.876 47.235-86.704 24.821-44.998 64.836-45.547 96.276-49.937 25.122-3.567 50.395-2.743 75.216-8.78 27.98-6.585 53.253-29.633 80.631-40.059 52.05-19.755 112.373-6.585 159.909-59.266 19.728-25.109 41.726-43.684 64.987-54.876 21.803-6.126 43.828-9.244 65.889-9.329 57.428-2.574 114.552-16.092 170.439-40.333 45.731-23.048 87.25-71.888 131.627-105.362 23.919-17.56 48.138-34.297 71.608-54.876 19.7-17.285 51.14-40.608 68.14-75.18-1.13-3.013-1.89-6.453-2.2-10.067a43.84 43.84 0 0 1 .41-10.813c.58-3.503 1.58-6.725 2.93-9.427s3.02-4.816 4.88-6.185c34.9-22.224 68.15-54.876 103.2-76.003 30.27-15.067 61.16-25.71 92.36-31.828 49.24-11.788 97.68-32.75 144.57-62.558v-34.846C928.765-211.213 108.311 336.173 0 409.706v216.759c20.13 3.637 40.448 1.32 60.173-6.859Z" opacity=".7" style="mix-blend-mode:multiply"/><path fill="#8D645B" d="M98.683 561.438c-1.764-5.106-2.389-11.251-1.745-17.171.643-5.92 2.506-11.166 5.205-14.657 52.2-60.364 114.779-51.309 172.094-70.79 31.891-10.975 64.384-17.286 95.975-31.554 28.516-15.887 57.558-28.443 86.95-37.59 32.031-9.68 63.469-25.026 93.869-45.821 30.443-17.617 61.641-30.558 93.267-38.687 61.226-16.463 122.602-22.774 183.076-50.76 58.104-26.424 113.829-67.912 165.474-123.196C1046.85 72.769 1095.89-5.978 1152.01-55.64c26.92-25.304 55.69-43.416 85.44-53.779 30.09-9.329 61.23-9.877 91.91-15.639 37.5-10.523 74.2-28.937 109.37-54.876v-27.438C928.765-211.213 108.311 336.173 0 409.706V593.54c33.095-9.603 68.145-7.683 98.683-32.102Z" opacity=".7" style="mix-blend-mode:multiply"/><path fill="url(#d)" d="M364.497 417.663c-.903-78.472.902-156.67 1.654-235.143l-4.061 2.195c-11.433 145.695 0 293.586 1.504 439.006 9.778-61.735 1.655-141.579.903-206.058Z" opacity=".7" style="mix-blend-mode:multiply"/><path fill="url(#e)" d="M787.659-32.593h-1.354c.601 10.976 1.053 21.95 1.354 32.926.15-10.7 0-21.676 0-32.925Z" opacity=".7" style="mix-blend-mode:multiply"/><path fill="url(#f)" d="M812.331-43.293v65.576c0 47.193-1.054 94.112-1.204 141.031v265.599c.203 3.901-.163 7.83-1.061 11.389-.898 3.56-2.296 6.623-4.053 8.88-1.756 2.256-3.808 3.625-5.948 3.969-2.14.343-4.292-.351-6.238-2.014 1.505 16.463 3.31 32.926 5.566 49.114.747 2.902 1.145 6.062 1.168 9.268.023 3.205-.331 6.383-1.036 9.319-.705 2.936-1.746 5.564-3.054 7.707-1.307 2.142-2.85 3.751-4.526 4.717-1.676.966-3.446 1.268-5.191.885-1.745-.382-3.425-1.441-4.928-3.104-1.502-1.663-2.793-3.893-3.784-6.54-.992-2.647-1.662-5.65-1.965-8.807-24.22-173.408-2.107-356.693-12.035-535.313l-18.202 8.231c-1.204 152.555-7.823 307.03 6.468 457.39 3.159 31.827-20.158 45.546-23.317 13.444 0-3.292 0-6.859-.902-10.426v27.438c0 5.821-1.268 11.404-3.525 15.521-2.257 4.116-5.318 6.429-8.51 6.429-3.191 0-6.253-2.313-8.509-6.429-2.257-4.117-3.525-9.7-3.525-15.521 0-154.75 0-310.323-7.672-464.524l-25.724 12.347c-7.929 160.754-6.821 322.565 3.309 482.907 2.407 31.828-20.91 45.547-23.316 13.445 0-4.939 0-9.878-1.053-14.817v50.211a39.82 39.82 0 0 1-.504 9.232c-.521 2.978-1.382 5.722-2.525 8.052-1.143 2.33-2.542 4.194-4.107 5.471-1.565 1.276-3.26 1.936-4.974 1.936-1.714 0-3.409-.66-4.974-1.936-1.565-1.277-2.965-3.141-4.108-5.471-1.143-2.33-2.003-5.074-2.525-8.052a39.82 39.82 0 0 1-.503-9.232c0-170.114-3.009-340.504 1.956-510.619l-45.13 22.5c10.939 173.088 12.25 347.75 3.911 521.319-1.504 31.828-25.723 32.377-24.219 0 8.352-169.418 7.293-339.942-3.159-508.973l-44.227 23.048c0 168.195 2.106 336.389 2.106 504.583.19 3.107.019 6.253-.503 9.231-.522 2.978-1.382 5.722-2.525 8.053-1.143 2.33-2.543 4.194-4.108 5.47-1.565 1.277-3.26 1.936-4.974 1.936-1.714 0-3.409-.659-4.974-1.936-1.565-1.276-2.964-3.14-4.107-5.47-1.143-2.331-2.004-5.075-2.525-8.053a39.757 39.757 0 0 1-.503-9.231c0-164.627-1.655-327.883-1.956-491.687l-11.583 6.311c1.354 161.335-1.956 323.767 10.53 483.181 2.407 31.828-20.91 45.547-23.317 13.445-12.636-159.963-10.079-321.847-11.282-483.456-21.813 11.798-43.174 23.871-63.934 35.395-.902 90.271-3.309 180.541-1.354 270.537 1.354 64.479 7.823 143.501-3.309 205.785-.538 4.211-1.737 8.046-3.451 11.033-1.715 2.987-3.87 4.997-6.201 5.783-2.332.787-4.738.315-6.925-1.356-2.187-1.671-4.058-4.469-5.386-8.052v9.054c0 5.822-1.268 11.405-3.525 15.522-2.257 4.116-5.318 6.429-8.51 6.429-3.191 0-6.252-2.313-8.509-6.429-2.257-4.117-3.525-9.7-3.525-15.522 0-30.181-.752-60.363-1.505-90.545 0 37.865-1.203 76.003-1.353 114.142 0 5.822-1.268 11.405-3.525 15.521-2.257 4.117-5.318 6.429-8.51 6.429s-6.253-2.312-8.51-6.429c-2.257-4.116-3.524-9.699-3.524-15.521 0-156.396 9.928-315.261-1.806-470.56l-55.659 32.377c0 161.609 6.619 322.944 6.92 484.553.19 3.107.018 6.253-.504 9.231-.521 2.978-1.382 5.722-2.525 8.052-1.143 2.331-2.542 4.195-4.107 5.471-1.565 1.276-3.26 1.936-4.974 1.936-1.714 0-3.409-.66-4.974-1.936-1.565-1.276-2.965-3.14-4.108-5.471-1.143-2.33-2.003-5.074-2.525-8.052a39.812 39.812 0 0 1-.503-9.231c0-156.67-7.07-313.341-6.92-470.011l-47.837 29.359c-5.566 66.948 3.159 137.189 3.159 205.509V745.82c0 5.822-1.268 11.405-3.525 15.521-2.257 4.117-5.318 6.43-8.51 6.43-3.191 0-6.252-2.313-8.509-6.43-2.257-4.116-3.525-9.699-3.525-15.521 0-93.289 2.256-187.949 0-281.238a2629.44 2629.44 0 0 1-4.212-157.768l-16.698 10.426c9.477 157.494 0 317.182 0 475.225 0 5.821-1.268 11.404-3.525 15.521-2.257 4.116-5.318 6.429-8.51 6.429-3.191 0-6.252-2.313-8.509-6.429-2.257-4.117-3.525-9.7-3.525-15.521 0-152.555 9.176-308.128 0-460.408L76.72 359.495c0 69.692 0 139.384 1.053 209.076 0 51.584 0 103.441 1.504 155.299 0 16.463 0 32.925.753 49.388.752 16.463 3.31 22.774-.753 12.073 1.856 5.021 2.541 11.181 1.906 17.124-.634 5.943-2.537 11.183-5.29 14.567-2.753 3.383-6.13 4.634-9.389 3.476-3.258-1.158-6.13-4.629-7.986-9.65-5.717-15.64-3.009-54.876-3.31-72.71 0-49.937-1.053-99.6-1.353-149.537 0-71.064-1.204-142.128-1.354-213.467l-5.115 3.293c.752 161.06-12.486 323.493 1.805 482.907 3.46 31.005-19.105 44.449-22.715 12.621-14.291-160.237-2.557-319.651-2.557-480.163L0 409.706v841.524h1438.73V-206.823c-184.58-1.372-409.78 69.967-626.399 163.53Zm86.799 98.502c-13.076 106.35-14.609 216.342-4.513 323.767a44.446 44.446 0 0 1-.142 13.246c-.708 4.31-2.048 8.185-3.875 11.207-1.827 3.022-4.072 5.076-6.493 5.941-2.42.864-4.924.506-7.241-1.036-1.096 2.747-2.587 4.887-4.309 6.182-1.721 1.295-3.606 1.695-5.445 1.155-1.838-.54-3.559-1.999-4.971-4.214-1.411-2.215-2.459-5.101-3.026-8.336-8.26-46.808-11.229-96.186-8.725-145.146-.848-55.678 3.163-111.248 11.884-164.628.748-4.128 2.093-7.811 3.894-10.66 1.8-2.85 3.989-4.76 6.335-5.528a1170.02 1170.02 0 0 1 4.062-35.395c3.309-31.553 26.024-18.109 22.565 13.445Zm73.861-27.438a3075.745 3075.745 0 0 0-1.805 241.453c.257 4.475-.247 8.985-1.442 12.921-1.196 3.935-3.025 7.105-5.241 9.082-2.216 1.976-4.712 2.662-7.149 1.965-2.437-.696-4.698-2.741-6.476-5.859 0 27.438-20.91 37.041-23.618 7.134-7.828-88.268-7.064-178.363 2.257-266.147.263-4.026 1.173-7.82 2.615-10.906 1.441-3.086 3.351-5.326 5.488-6.44 2.137-1.114 4.407-1.051 6.525.18 2.118 1.23 3.989 3.575 5.379 6.74v-3.568c2.557-32.925 25.874-19.206 23.467 13.445Zm64.989 192.065c-.49 2.792-1.27 5.384-2.3 7.626-1.03 2.242-2.3 4.091-3.72 5.441-1.43 1.351-2.98 2.176-4.58 2.429-1.6.253-3.22-.071-4.75-.954-1.53-.883-2.95-2.307-4.18-4.191-1.23-1.884-2.24-4.192-2.98-6.79-.74-2.599-1.19-5.439-1.33-8.356-.14-2.918.04-5.857.52-8.65 4.51-22.499 0-89.996 0-121.824V9.662a3525.986 3525.986 0 0 0-1.95 222.247v4.115c0 2.883-.32 5.737-.92 8.4-.61 2.664-1.49 5.083-2.61 7.122-1.12 2.038-2.44 3.655-3.9 4.758-1.46 1.103-3.03 1.671-4.61 1.671-1.58 0-3.144-.568-4.605-1.671-1.46-1.103-2.786-2.72-3.904-4.758-1.117-2.039-2.004-4.458-2.609-7.122-.604-2.663-.916-5.517-.916-8.4a2996.82 2996.82 0 0 1 4.212-269.165c.257-4.444 1.3-8.614 2.972-11.88 1.671-3.267 3.88-5.453 6.29-6.228 2.41-.775 4.9-.096 7.08 1.933 2.19 2.03 3.95 5.3 5.02 9.315v-33.2c1.2-32.376 25.27-32.651 24.22 0-1.96 54.876 0 111.398 0 167.097.3 34.572 6.02 91.643-.45 125.94Zm32.79-74.905c-7.07-88.156-7.07-177.718 0-265.874 2.41-32.376 25.73-18.657 23.32 13.171-6.32 79.428-6.32 160.104 0 239.532 2.41 30.731-20.91 44.175-23.32 12.073v1.098Zm31.29-37.316c-13.24-67.772-9.33-148.713-4.51-219.503 2.26-32.102 25.57-18.383 23.32 13.17-6.39 63.832-4.85 129.465 4.51 192.065.47 2.793.64 5.728.49 8.639-.15 2.911-.61 5.74-1.35 8.326-.75 2.586-1.77 4.879-3 6.746-1.24 1.868-2.66 3.274-4.19 4.139-1.53.865-3.14 1.171-4.74.901-1.59-.27-3.14-1.11-4.56-2.473-1.42-1.363-2.68-3.222-3.7-5.471s-1.79-4.844-2.27-7.636v1.097Zm90.26-60.089c2.11 30.182-18.8 43.9-22.86 17.56h-1.51c.54 2.931.74 6.036.59 9.116-.16 3.08-.67 6.066-1.49 8.769-.82 2.702-1.95 5.062-3.3 6.927-1.35 1.865-2.9 3.195-4.55 3.904-1.65.71-3.37.783-5.03.215-1.67-.567-3.25-1.763-4.65-3.51-1.4-1.747-2.59-4.007-3.48-6.637-.89-2.629-1.47-5.569-1.71-8.632-9.64-71.305-8.44-146.052 3.46-216.21.43-3.182 1.33-6.083 2.62-8.377 1.28-2.293 2.89-3.886 4.64-4.599 1.75-.714 3.58-.519 5.27.562 1.7 1.081 3.19 3.005 4.32 5.554 1.87-4.587 4.64-7.668 7.73-8.59 3.09-.922 6.25.388 8.82 3.652 3.67 1.696 6.86 5.86 8.93 11.66 2.06 5.799 2.85 12.806 2.2 19.619-4.19 55.725-4.09 112.245.3 167.92l-.3 1.097Zm27.23-65.028c-9.33-45.942-9.33-96.46 0-142.402 6.77-31.828 27.53-4.39 21.21 24.419-5.42 29.75-5.42 61.894 0 91.643 6.32 29.358-14.44 54.876-20.91 25.243l-.3 1.097Zm25.57 12.896c-7.27-52.731-6.07-108.169 3.46-159.688 6.32-29.633 27.08-3.842 20.76 25.517-6.39 39.416-6.7 81.282-.9 121.001 4.36 30.182-18.96 43.352-23.02 12.073l-.3 1.097Zm52.5-37.041c.75 2.902 1.15 6.062 1.17 9.267.02 3.206-.33 6.383-1.04 9.32-.7 2.936-1.74 5.564-3.05 7.706-1.31 2.143-2.85 3.751-4.53 4.718-1.67.966-3.44 1.268-5.19.885-1.74-.382-3.42-1.44-4.92-3.104-1.51-1.663-2.8-3.893-3.79-6.54-.99-2.647-1.66-5.65-1.96-8.807-7.37-40.81-7.37-84.856 0-125.666.97-5.64 3.14-10.34 6.02-13.067 2.87-2.727 6.23-3.258 9.32-1.475s5.67 5.733 7.16 10.982c1.5 5.248 1.79 11.365.81 17.005-5.78 31.736-5.67 66.063.3 97.678l-.3 1.098Z" opacity=".7" style="mix-blend-mode:multiply"/><path fill="url(#g)" d="M1315.18-198.043c1.85 9.519 2.16 19.8.91 29.633-6.63 64.375-6.63 130.434 0 194.809 5.42 59.814-38.4 85.332-43.82 25.243-8.28-80.239-8.28-162.587 0-242.826h-4.21c0 2.47 0 5.214-1.06 7.957-8.19 54.631-8.97 112.074-2.26 167.371 6.93 59.54-36.89 84.784-43.96 25.243-7.4-62.591-7.81-127.258-1.21-190.144l-19.27 4.39c-1.05 99.874-4.67 199.748-8.73 299.622-2.41 60.637-47.88 61.186-45.17 0 3.76-96.033 7.23-192.066 8.58-288.373l-36.59 10.152c-12.19 118.258-.9 242.551 0 362.455.54 5.968.36 12.077-.53 17.903-.89 5.827-2.46 11.232-4.61 15.841-2.15 4.609-4.82 8.311-7.83 10.851-3.01 2.539-6.29 3.854-9.61 3.854-3.32 0-6.6-1.315-9.61-3.854-3.01-2.54-5.68-6.242-7.83-10.851-2.15-4.609-3.72-10.014-4.61-15.841-.89-5.826-1.07-11.935-.54-17.903 0-115.788-9.18-233.496-1.35-348.187l-37.34 12.073a5597.118 5597.118 0 0 0 1.35 384.13c.54 5.968.36 12.077-.53 17.904s-2.46 11.232-4.61 15.841c-2.15 4.608-4.82 8.311-7.83 10.85-3.01 2.539-6.29 3.854-9.61 3.854-3.32 0-6.6-1.315-9.61-3.854s-5.684-6.242-7.832-10.85c-2.148-4.609-3.721-10.014-4.609-15.841-.888-5.827-1.07-11.936-.534-17.904a6072.802 6072.802 0 0 1-1.957-366.57l-35.383 12.896c-5.42 156.67 7.679 313.889 0 470.834-2.861 60.363-48.482 60.912-45.169 0 7.528-150.908-4.367-301.817 0-453l-4.517 1.647c-11.443 189.87 20.025 384.13-6.173 571.531-1.897 11.352-6.191 20.866-11.937 26.449-5.746 5.583-12.474 6.778-18.703 3.321-6.23-3.457-11.45-11.281-14.514-21.753-3.064-10.471-3.719-22.731-1.822-34.083 13.4-94.935 9.184-196.455 6.022-294.134a3443.618 3443.618 0 0 1-1.807-233.222L821.782-46.86c-5.119 77.375-1.054 155.847-2.56 233.77-1.506 84.235-9.034 172.585-3.312 256.545 4.065 59.814-39.749 85.606-43.815 25.242-6.775-99.873 1.506-198.375 1.807-298.524 0-65.576-1.204-131.427 1.205-196.455l-27.403 12.347c-4.517 82.314 2.108 164.627 1.807 245.295 0 95.484-6.023 190.419 0 285.628 3.764 60.638-41.857 59.815-45.17 0-6.625-106.184 1.807-212.095 0-318.554-1.204-63.93-3.764-127.586-2.108-192.065L658.72 27.771c-8.883 161.609 11.744 325.413-1.957 487.297-5.119 60.363-49.084 34.846-43.965-25.243 12.346-145.421-3.162-292.763 0-439.006l-19.122 9.603c-6.474 162.158-1.505 327.059-1.355 489.217a75.129 75.129 0 0 1-.533 17.904c-.888 5.827-2.461 11.232-4.609 15.841-2.149 4.609-4.822 8.311-7.833 10.85-3.012 2.539-6.291 3.854-9.609 3.854-3.319 0-6.598-1.315-9.609-3.854-3.012-2.539-5.685-6.241-7.833-10.85-2.149-4.609-3.722-10.014-4.61-15.841a75.129 75.129 0 0 1-.533-17.904c0-155.024-3.915-310.871.903-466.444l-27.553 14.268c1.506 76.003-2.56 151.731-2.259 228.283 0 88.076 7.529 177.249 4.819 265.05-1.807 60.912-47.278 61.461-45.17 0 2.409-82.314-4.366-166.273-4.667-249.41 0-72.711 4.065-146.793 3.161-219.503l-48.03 27.438c-9.786 171.486-3.764 345.717-3.613 518.027.325 5.966-.055 11.99-1.115 17.666-1.06 5.675-2.774 10.872-5.028 15.239-2.254 4.368-4.995 7.805-8.039 10.08-3.044 2.275-6.32 3.336-9.607 3.11l2.71 30.456c5.721 59.541-38.093 85.332-43.815 25.243-5.119-52.68-8.883-105.91-11.593-159.139 1.204 58.168 2.258 116.336 2.409 174.505a75.07 75.07 0 0 1-.534 17.903c-.888 5.827-2.46 11.232-4.609 15.841-2.148 4.609-4.821 8.311-7.833 10.85-3.011 2.539-6.29 3.854-9.609 3.854-3.318 0-6.597-1.315-9.609-3.854-3.011-2.539-5.684-6.241-7.833-10.85-2.148-4.609-3.721-10.014-4.609-15.841a75.122 75.122 0 0 1-.533-17.903c0-187.676-9.486-374.802-5.27-561.928l-15.809 9.603c-10.239 198.376-3.162 400.044-3.012 599.243a75.129 75.129 0 0 1-.533 17.904c-.888 5.827-2.461 11.232-4.609 15.841-2.149 4.609-4.822 8.311-7.833 10.85-3.012 2.539-6.291 3.854-9.609 3.854-3.319 0-6.598-1.315-9.609-3.854-3.012-2.539-5.685-6.241-7.833-10.85-2.149-4.609-3.722-10.014-4.61-15.841a75.129 75.129 0 0 1-.533-17.904c0-192.065-5.571-381.661 1.957-571.531l-21.229 12.896c-7.331 189.202-5.921 379.193 4.215 567.964 3.313 60.638-42.158 60.089-45.169 0-9.71-179.165-11.523-359.461-5.42-539.154l-9.938 6.036c-6.624 200.845 0 402.24 4.819 603.634a75.174 75.174 0 0 1-.534 17.903c-.888 5.827-2.461 11.232-4.609 15.841-2.149 4.609-4.821 8.311-7.833 10.85-3.012 2.539-6.291 3.854-9.609 3.854-3.319 0-6.597-1.315-9.609-3.854-3.012-2.539-5.685-6.241-7.833-10.85-2.149-4.609-3.721-10.014-4.609-15.841a75.174 75.174 0 0 1-.534-17.903c-3.915-192.066-10.69-382.485-5.571-573.727l-24.843 15.914v147.067c1.656 116.611 6.023 233.222 6.324 350.108.536 5.968.354 12.077-.534 17.903-.888 5.827-2.46 11.232-4.609 15.841-2.148 4.609-4.821 8.311-7.833 10.851-3.012 2.539-6.29 3.854-9.609 3.854-3.318 0-6.597-1.315-9.609-3.854-3.012-2.54-5.684-6.242-7.833-10.851-2.148-4.609-3.721-10.014-4.61-15.841a75.171 75.171 0 0 1-.533-17.903c0-128.135-6.022-255.721-6.624-384.131v-83.685L0 409.706v841.524h1440V-206.823c-39.75-.275-81.76 2.744-124.82 8.78Z" opacity=".7" style="mix-blend-mode:multiply"/><path fill="#D58E32" fill-opacity=".33" d="M86.95 1241.62h9.627c1.504-216.48 3.911-685.944-4.363-754.813-.902-7.134-5.716-3.842-5.114 3.018 4.964 68.32-.15 536.135-.15 751.795Zm26.927 0c-3.008-181.64-1.805-596.497-2.106-622.288 0-41.98.753-84.509 0-126.215 0-3.567-2.406-3.567-2.557 0-1.655 43.901-2.407 88.076-2.858 132.251 0 23.048-1.956 431.322 1.805 616.252h5.716Zm123.656 0c0-213.46 1.504-667.286 2.106-682.103 1.889-32.859 1.129-66.045-2.257-98.502 0-.655-.142-1.283-.396-1.746-.254-.463-.598-.723-.958-.723-.359 0-.703.26-.957.723-.254.463-.396 1.091-.396 1.746a772.344 772.344 0 0 1 0 89.448c-.903 16.463-1.956 33.2-2.859 49.662V1240.8l5.717.82Zm14.592 0h6.318c0-226.63-.752-631.069-.752-644.788.853-38.997.2-78.055-1.956-116.885-.078-.356-.213-.662-.387-.877-.174-.216-.38-.331-.59-.331-.211 0-.417.115-.591.331-.174.215-.309.521-.387.877 1.955 45.547-1.204 512.814-1.655 761.673Zm24.972 0c0-254.346 3.008-750.972-1.805-805.848 0-4.664-3.761-3.567-3.912 0 0 50.212-2.256 563.3-1.805 804.758l7.522 1.09Zm20.756 0c-1.504-262.303-4.663-768.258-5.566-833.011 0-.437-.095-.856-.264-1.164-.169-.309-.399-.483-.638-.483-.24 0-.469.174-.638.483-.17.308-.265.727-.265 1.164-.902 64.204 1.053 570.433 3.46 833.011h3.911Zm37.156 0c0-228.28 1.053-740.82-8.123-775.118-.752-3.018-3.009 0-2.557 2.47 4.964 41.98 3.008 534.768 3.911 772.648h6.769Zm93.271 0h4.212c0-124.02 5.716-820.39-2.858-852.767-.156-.301-.36-.504-.583-.576-.223-.073-.454-.013-.656.172-.203.185-.368.485-.47.854-.102.37-.136.789-.097 1.197 6.92 34.297 1.505 707.35.452 851.12Zm-1.506 0c-1.203-251.603-3.159-809.415-4.513-873.62a3.37 3.37 0 0 0 .069-.919 3 3 0 0 0-.175-.87 1.66 1.66 0 0 0-.378-.62c-.152-.147-.321-.224-.494-.224-.172 0-.341.077-.493.224a1.66 1.66 0 0 0-.378.62 3 3 0 0 0-.175.87 3.37 3.37 0 0 0 .069.919c.902 63.656 0 622.292 1.805 873.62h4.663Zm70.852 0c-.903-217.85-3.31-843.164-4.664-907.643 0-4.115-2.858-4.115-2.858 0-1.053 59.815 0 717.773.903 907.643h6.619Zm10.683 0h4.965c-.753-61.46-1.806-802.281-1.806-828.347.376-26.841-.227-53.698-1.805-80.393 0-3.292-2.858-2.469-2.858 0 1.053 51.583-4.212 825.33 1.504 908.74Zm68.144-29.63.902 29.63h4.213c0-21.4-1.505-41.98-1.354-63.65 0-31.83 0-850.578-5.566-879.662 0-2.469-2.407 0-2.106 1.921 7.371 40.882 2.707 869.231 3.911 911.761Zm14.893-12.62v42.25h7.07c0-13.99-1.655-29.9-1.805-34.84-1.655-44.73-1.204-878.016-7.221-920.545 0-3.841-3.159-2.195-2.858 1.647 4.964 41.705 3.46 869.508 4.814 911.488Zm16.398-912.311c0-3.293-2.256-3.293-2.407 0-2.708 44.449-1.354 878.011 3.009 921.091 0 .58.126 1.14.352 1.55.226.41.532.64.851.64.319 0 .625-.23.851-.64.226-.41.353-.97.353-1.55-2.106-45.82-5.566-875.819-3.009-921.091Zm59.271 940.291v-54.87c0-33.75-1.805-855.24-2.708-889.263.078-.452.096-.93.053-1.397a4.601 4.601 0 0 0-.299-1.29c-.154-.382-.355-.692-.586-.905-.232-.214-.488-.325-.747-.325-.26 0-.516.111-.747.325-.232.213-.433.523-.586.905a4.567 4.567 0 0 0-.299 1.29 5.43 5.43 0 0 0 .052 1.397c-1.203 42.529 0 871.423 0 913.683 0 6.58-2.407 44.72 5.416 40.06.461-.46.853-1.11 1.141-1.91.288-.8.462-1.72.507-2.67.044-.95-.042-1.91-.25-2.79-.209-.88-.535-1.64-.947-2.24Zm8.122-965.26c0-.655-.142-1.283-.396-1.746-.254-.463-.598-.723-.957-.723s-.704.26-.958.723c-.254.463-.396 1.091-.396 1.746 0 57.62 1.053 903.8 3.911 960.33 0 5.21 3.61 5.21 3.761 0 2.557-56.8-4.212-902.71-4.965-960.33ZM63.932 544.7c4.362 3.293 4.212 39.511 4.513 46.645.902 27.438.902 54.876 1.053 80.118.15 25.243 0 373.427 0 570.157h5.716V651.434c0-27.438-1.354-53.23-3.31-79.57 0-7.957-1.504-27.438-6.618-31.005-1.956-.549-2.407 3.018-1.354 3.841Zm-17.749 696.92h3.911c-1.353-198.65-.601-578.388-2.707-610.216 0-3.018-2.257-3.018-2.106 0 1.654 31.554-.15 409.646.902 610.216Zm119.293 0c-2.257-204.68-4.212-645.885-5.867-698.84a4.29 4.29 0 0 0-.103-.945 3.085 3.085 0 0 0-.294-.801 1.656 1.656 0 0 0-.439-.536.856.856 0 0 0-.518-.188.856.856 0 0 0-.518.188 1.656 1.656 0 0 0-.439.536 3.085 3.085 0 0 0-.294.801 4.29 4.29 0 0 0-.103.945c-1.655 54.875 0 488.67 2.106 698.84h6.469Zm596.309 0c0-167.09-2.557-954.561-5.265-987.761 0-1.646-1.204 0-1.204 0 2.558 35.121 3.009 821.761 3.761 987.761h2.708Zm-11.735 0c0-192.06-1.956-947.702-4.663-983.371.074-.412.093-.85.057-1.279a4.256 4.256 0 0 0-.268-1.187c-.139-.351-.323-.637-.534-.834-.212-.198-.447-.301-.685-.301-.237 0-.472.103-.684.301-.211.197-.395.483-.534.834-.14.352-.231.758-.268 1.187-.037.429-.017.867.057 1.279 2.106 35.669 0 789.661 3.009 982.551l4.513.82Zm70.552 0c0-151.73 0-954.561-3.309-987.761a5.43 5.43 0 0 0 .052-1.397 4.567 4.567 0 0 0-.299-1.29c-.153-.382-.354-.692-.586-.906-.231-.213-.487-.325-.747-.325-.259 0-.515.112-.747.325-.231.214-.432.524-.586.906a4.601 4.601 0 0 0-.299 1.29c-.043.467-.025.945.053 1.397 1.655 32.926 0 831.641 2.256 985.841l4.212 1.92Zm25.577 0c-1.204-92.74-3.611-934.532-4.513-953.464-.903-18.932-1.655-41.157-3.61-61.186 0-.728-.159-1.426-.441-1.941-.282-.514-.665-.803-1.064-.803s-.781.289-1.064.803c-.282.515-.44 1.213-.44 1.941 1.655 35.394-1.504 905.45 5.867 1015.2l5.265-.55Zm9.023 0h6.017a70.52 70.52 0 0 1 0-5.48c0-14.82-1.053-932.893-1.654-947.435-1.204-27.438-2.407-54.876-4.814-80.393 0-.728-.159-1.426-.441-1.94-.282-.515-.664-.804-1.063-.804-.399 0-.782.289-1.064.804-.282.514-.441 1.212-.441 1.94 0 29.633 1.655 58.991 2.558 88.624.15 14.817.601 883.224.902 944.684ZM902.59 140.266c.067-.332.09-.689.065-1.04a3.423 3.423 0 0 0-.206-.977 1.875 1.875 0 0 0-.43-.692c-.172-.164-.364-.25-.558-.25-.194 0-.385.086-.557.25-.172.164-.32.401-.431.692a3.458 3.458 0 0 0-.206.977c-.024.351-.002.708.066 1.04 0 49.663 1.655 1005.324 5.566 1054.164 0 3.57 3.009 2.47 3.159 0 0-50.76-6.468-1004.227-6.468-1054.164Zm15.042 995.174c-1.504-29.36-2.557-962.249-3.159-991.881 0-.655-.142-1.284-.396-1.747-.254-.463-.598-.723-.957-.723-.36 0-.704.26-.958.723-.254.463-.396 1.092-.396 1.747 0 29.632 0 962.521.902 991.881-.432 24.25.832 48.49 3.761 72.16.049.58.161 1.13.327 1.63.167.5.385.93.644 1.27.258.35.551.59.862.73.311.14.634.16.95.07.316-.09.619-.29.892-.59.274-.31.511-.71.7-1.18.188-.47.324-1 .4-1.57.075-.57.088-1.16.039-1.73-.151-23.6-2.858-47.47-3.611-70.79ZM967.576 114.2c0-2.744-2.708 0-1.956 2.47 8.424 35.394 3.009 982.55 3.911 1020.69 0 .73.159 1.42.441 1.94.282.51.665.8 1.064.8s.781-.29 1.064-.8c.282-.52.44-1.21.44-1.94 1.204-36.49 4.363-990.509-4.964-1023.16Zm10.98 16.737c0-.727-.159-1.425-.441-1.94-.282-.514-.665-.803-1.064-.803s-.781.289-1.064.803c-.282.515-.44 1.213-.44 1.94 0 32.377 0 974.873 6.168 1004.773.144.64.413 1.15.754 1.44.341.29.73.34 1.088.13.359-.21.663-.65.851-1.25.188-.59.247-1.29.165-1.96-2.106-33.48-5.416-969.11-6.017-1003.133Zm62.424-88.076c0-.582-.12-1.14-.35-1.552-.22-.411-.53-.642-.85-.642-.32 0-.62.23-.85.642-.23.412-.35.97-.35 1.553 1.95 35.394-1.21 985.568.9 1020.688 0 4.94 3.31 4.67 3.61 0 2.26-33.47 1.35-986.665-2.11-1020.688Zm12.04-2.469c.08-.412.1-.85.06-1.279a4.322 4.322 0 0 0-.27-1.186c-.14-.352-.32-.638-.53-.835-.22-.197-.45-.3-.69-.3-.24 0-.47.103-.68.3-.21.197-.4.483-.54.835-.14.35-.23.758-.26 1.186-.04.429-.02.867.05 1.28 0 42.528-2.85 1005.597 2.26 1047.027.13.88.41 1.66.8 2.21.4.55.88.85 1.38.85.5 0 .98-.3 1.38-.85.39-.55.67-1.33.8-2.21 0-44.45-1.05-1004.773-3.76-1047.028Zm108.91 1031.388c0-22.77 0-1113.427-4.66-1134.829 0-2.47-2.26-1.646-1.96 0 3.01 23.871 3.01 1115.629 2.71 1140.049 0 7.4-.9 17.56-1.2 27.43-.76-24.97-2.71-1117.542-6.17-1140.315 0-4.939-4.06-3.018-3.61 1.92 3.16 34.298 2.41 1136.475 5.56 1170.505 0 5.48 4.52 3.84 4.52 0v-18.39c.2 2.48.6 4.88 1.2 7.14.09.42.24.78.44 1.03.2.26.44.4.69.4.25 0 .48-.14.69-.4.2-.25.35-.61.44-1.03 2.25-17.53 2.71-35.67 1.35-53.51Zm17.15-1144.706a5.064 5.064 0 0 0-.37-1.518c-.19-.446-.43-.803-.71-1.044-.28-.24-.59-.358-.89-.342-.31.016-.61.165-.89.434-3.3 3.019-1.8 2.195-5.56 7.683-1.2 1.92 0 6.036 1.2 4.39.99-1.65 2.18-2.87 3.46-3.567 0 27.438 0 1122.76 1.21 1149.65-.09.61-.1 1.24-.04 1.86.07.62.22 1.2.43 1.7s.48.91.79 1.18c.31.28.65.43 1 .43.34 0 .68-.15.99-.43.31-.27.58-.68.79-1.18.22-.5.36-1.08.43-1.7.07-.62.06-1.25-.03-1.86 1.65-28.81.45-1127.15-1.81-1155.686Zm31.89-35.121c-.9-2.469-2.86 0-1.95 3.293 9.02 29.084 5.11 1141.964 5.41 1174.894 0 4.39 3.16 4.39 3.16 0 .9-32.65 3.91-1150.474-6.62-1178.187Zm34.91 47.468a860.012 860.012 0 0 0-5.87-74.357c0-4.115-3.31-2.469-3.01 1.647 1.99 26.114 3.25 52.397 3.76 78.746 0 15.091-1.8 1106.573 2.11 1119.743.14.59.37 1.08.66 1.44.3.35.64.53.99.53s.7-.18.99-.53c.29-.36.53-.85.67-1.44 4.06-14 .45-1109.59-.3-1125.779Zm13.08-21.402c.37-16.805-1.06-33.58-4.21-49.388-.9-3.018-3.16 0-2.86 2.469 3.76 38.413-1.65 1149.37 4.81 1186.41.12 1.31.52 2.48 1.12 3.26.59.77 1.33 1.08 2.04.86.72-.22 1.36-.95 1.79-2.03.42-1.08.59-2.42.47-3.73-.45-24.7-2.26-1115.626-3.16-1137.851Zm19.71-52.132c0-4.115-3.46-4.39-3.16 0 1.2 27.438 2.41 1084.62 3.16 1112.881 0 .655.14 1.283.4 1.746.25.463.59.723.95.723s.71-.26.96-.723c.25-.463.4-1.091.4-1.746.75-28.261-.75-1084.894-2.71-1112.881Zm31.29-13.17c0-3.292-2.86-1.92-2.41 0 3.31 29.359 0 1090.93 5.57 1119.191-.08.452-.1.931-.05 1.398.04.467.14.909.29 1.29.16.381.36.691.59.905.23.214.49.325.75.325s.51-.111.74-.325c.24-.214.44-.524.59-.905.15-.381.26-.823.3-1.29.04-.467.02-.946-.05-1.398-.6-28.809-1.51-1091.479-6.32-1119.191Zm16.4 6.036c0-2.743-2.71-2.195-2.56 0 1.35 23.048 1.05 1075.84 4.66 1097.516 0 3.018 2.41 1.646 2.26 0-1.51-23.048-2.71-1074.468-4.36-1097.516Z"/><path fill="url(#h)" d="M1449.11-212.037c-26.93-12.621-247.91 6.036-325.69 0-77.77-6.036-170.286-25.243-247.908-25.243-77.623 0-319.818 43.901-433.243 37.59-113.426-6.311-155.396 0-236.027-31.279C151.635-252.096 56.111-246.609 0-242.219v747.134c3.483-2.16 7.054-3.812 10.68-4.939 16.42-3.584 32.966-4.868 49.493-3.841 10.093-.101 20.162-1.845 30.086-5.213 6.469-2.195 18.503 0 23.618-9.604-6.912-7.289-14.288-13.002-21.963-17.011 0-1.372-.903-8.231-1.053-9.055 6.95.292 13.885 1.392 20.759 3.293 10.53 0 20.609-3.018 30.989-3.018 15.034 4.207 30.376 2.901 45.13-3.841-3.761-12.896-20.91-23.871-27.83-30.731 11.884 1.646 24.971 12.347 37.156 16.188 14.237 2.797 28.561 3.806 42.873 3.019-7.521-8.232-15.945-12.073-23.166-21.402a97.445 97.445 0 0 1 25.272 0c20.008 0 39.564-4.664 60.173-6.311 14.298-4.559 28.851-5.849 43.324-3.841 7.104 4.186 14.5 6.496 21.963 6.86-7.22-15.64-25.723-17.012-30.086-36.767 7.804-.711 15.627.21 23.317 2.744 12.636 0 24.972 0 37.457-3.019 10.079-1.371 20.609-2.469 30.087-3.292 9.477-.823 15.043 9.329 22.865 5.762-2.858-16.463-15.043-26.066-21.662-33.749 9.479 1.984 18.876 5.1 28.131 9.329 10.38 1.646 20.759 0 31.139 3.018 13.99 2.47 27.379 5.762 41.369 6.585-6.92-4.664-24.521-17.286-23.317-34.023 9.628 0 19.406 6.585 30.086 5.488-1.588-8.25-4.189-15.727-7.605-21.862-3.415-6.135-7.554-10.764-12.101-13.533 10.279 3.562 20.686 5.763 31.139 6.585 14.038-3.453 27.816-9.804 41.068-18.932 25.053-11.651 50.629-19.181 76.419-22.499-5.115-5.762-11.433-6.585-16.999-11.798 10.681 0 21.662 8.78 32.644 9.603 7.221 0 15.043-1.646 21.662 0 10.504 2.842 21.137 3.761 31.741 2.744-2.407-10.427-16.096-14.817-21.812-15.091 15.043 0 32.342 11.798 45.129 0-5.265-7.957-12.636-13.445-18.804-21.127 22.215 3.319 44.515 4.327 66.792 3.018 22.113-3.567 45.129 7.134 66.942-9.878-7.221-5.762-16.247-5.762-23.167-11.798 9.478 0 33.246 13.445 38.21-5.762-4.663-4.939-9.929-1.372-15.043-6.036 6.468 0 27.078-4.39 26.325-21.951-4.813-4.664-20.157-8.78-20.458-18.657 18.954-7.409 38.661-2.744 57.916-10.152 9.778-3.567 19.255-6.86 29.184-9.329 6.919-1.647 15.043 0 19.856-13.171-3.568-1.411-6.945-4.117-9.928-7.956 3.201-.317 6.294-2.221 8.946-5.51 2.651-3.288 4.759-7.834 6.097-13.148-2.106 0-3.309-3.293-5.265-3.842 8.902-11.479 18.252-21.75 27.982-30.73 9.78-5.762 20.16 0 30.08-6.585 15.05-9.603 30.99-7.134 43.48-30.456-4.96-10.975-16.25 0-22.87-7.134 5.09-.017 10.15-1.31 15.05-3.841-2.71-3.842-8.73 0-11.74-4.665 3.01-2.195 4.82-5.213 8.28-3.841-9.92-4.416-19.96-7.805-30.09-10.152 4.86-3.064 9.92-4.91 15.04-5.488 11.14-4.938 21.06-16.737 32.05-21.95 8.12-3.841 31.74-5.488 36.55-21.127-5.9-4.628-12.23-7.143-18.65-7.408 9.32-7.957 21.36 4.664 30.08-5.762-3.91 0-8.12 1.646-10.98-3.842 12.79-8.505 24.07-4.115 36.56-17.834 9.32-7.45 18.32-16.163 26.92-26.066-3.49-2.521-7.22-3.824-10.98-3.842 26.93 0 52.95-6.036 79.88-6.036 15.04 0 44.08 7.957 53.56-15.091-5.35-1.444-10.47-4.901-15.05-10.152 12.71 1.606 25.48-.15 37.91-5.213-3.71-2.098-7.55-3.387-11.43-3.841 11.28-11.25 34.45-2.47 47.84-2.47 13.38 0 38.96 5.214 45.12-21.127-5.11 0-12.63 1.646-16.24-3.018 10.64-2.121 21.07-6.923 30.99-14.268 9.47-7.671 19.72-11.598 30.08-11.524l-16.09-6.036Z"/><path fill="url(#i)" d="M1449.11-212.037c-26.93-12.621-247.91 6.036-325.69 0-77.77-6.036-170.286-25.243-247.908-25.243-77.623 0-319.818 43.901-433.243 37.59-113.426-6.311-155.396 0-236.027-31.279C151.635-252.096 56.111-246.609 0-242.219v747.134c3.483-2.16 7.054-3.812 10.68-4.939 16.42-3.584 32.966-4.868 49.493-3.841 10.093-.101 20.162-1.845 30.086-5.213 6.469-2.195 18.503 0 23.618-9.604-6.912-7.289-14.288-13.002-21.963-17.011 0-1.372-.903-8.231-1.053-9.055 6.95.292 13.885 1.392 20.759 3.293 10.53 0 20.609-3.018 30.989-3.018 15.034 4.207 30.376 2.901 45.13-3.841-3.761-12.896-20.91-23.871-27.83-30.731 11.884 1.646 24.971 12.347 37.156 16.188 14.237 2.797 28.561 3.806 42.873 3.019-7.521-8.232-15.945-12.073-23.166-21.402a97.445 97.445 0 0 1 25.272 0c20.008 0 39.564-4.664 60.173-6.311 14.298-4.559 28.851-5.849 43.324-3.841 7.104 4.186 14.5 6.496 21.963 6.86-7.22-15.64-25.723-17.012-30.086-36.767 7.804-.711 15.627.21 23.317 2.744 12.636 0 24.972 0 37.457-3.019 10.079-1.371 20.609-2.469 30.087-3.292 9.477-.823 15.043 9.329 22.865 5.762-2.858-16.463-15.043-26.066-21.662-33.749 9.479 1.984 18.876 5.1 28.131 9.329 10.38 1.646 20.759 0 31.139 3.018 13.99 2.47 27.379 5.762 41.369 6.585-6.92-4.664-24.521-17.286-23.317-34.023 9.628 0 19.406 6.585 30.086 5.488-1.588-8.25-4.189-15.727-7.605-21.862-3.415-6.135-7.554-10.764-12.101-13.533 10.279 3.562 20.686 5.763 31.139 6.585 14.038-3.453 27.816-9.804 41.068-18.932 25.053-11.651 50.629-19.181 76.419-22.499-5.115-5.762-11.433-6.585-16.999-11.798 10.681 0 21.662 8.78 32.644 9.603 7.221 0 15.043-1.646 21.662 0 10.504 2.842 21.137 3.761 31.741 2.744-2.407-10.427-16.096-14.817-21.812-15.091 15.043 0 32.342 11.798 45.129 0-5.265-7.957-12.636-13.445-18.804-21.127 22.215 3.319 44.515 4.327 66.792 3.018 22.113-3.567 45.129 7.134 66.942-9.878-7.221-5.762-16.247-5.762-23.167-11.798 9.478 0 33.246 13.445 38.21-5.762-4.663-4.939-9.929-1.372-15.043-6.036 6.468 0 27.078-4.39 26.325-21.951-4.813-4.664-20.157-8.78-20.458-18.657 18.954-7.409 38.661-2.744 57.916-10.152 9.778-3.567 19.255-6.86 29.184-9.329 6.919-1.647 15.043 0 19.856-13.171-3.568-1.411-6.945-4.117-9.928-7.956 3.201-.317 6.294-2.221 8.946-5.51 2.651-3.288 4.759-7.834 6.097-13.148-2.106 0-3.309-3.293-5.265-3.842 8.902-11.479 18.252-21.75 27.982-30.73 9.78-5.762 20.16 0 30.08-6.585 15.05-9.603 30.99-7.134 43.48-30.456-4.96-10.975-16.25 0-22.87-7.134 5.09-.017 10.15-1.31 15.05-3.841-2.71-3.842-8.73 0-11.74-4.665 3.01-2.195 4.82-5.213 8.28-3.841-9.92-4.416-19.96-7.805-30.09-10.152 4.86-3.064 9.92-4.91 15.04-5.488 11.14-4.938 21.06-16.737 32.05-21.95 8.12-3.841 31.74-5.488 36.55-21.127-5.9-4.628-12.23-7.143-18.65-7.408 9.32-7.957 21.36 4.664 30.08-5.762-3.91 0-8.12 1.646-10.98-3.842 12.79-8.505 24.07-4.115 36.56-17.834 9.32-7.45 18.32-16.163 26.92-26.066-3.49-2.521-7.22-3.824-10.98-3.842 26.93 0 52.95-6.036 79.88-6.036 15.04 0 44.08 7.957 53.56-15.091-5.35-1.444-10.47-4.901-15.05-10.152 12.71 1.606 25.48-.15 37.91-5.213-3.71-2.098-7.55-3.387-11.43-3.841 11.28-11.25 34.45-2.47 47.84-2.47 13.38 0 38.96 5.214 45.12-21.127-5.11 0-12.63 1.646-16.24-3.018 10.64-2.121 21.07-6.923 30.99-14.268 9.47-7.671 19.72-11.598 30.08-11.524l-16.09-6.036Z"/><path fill="url(#j)" d="M409.325-167.587c7.221 0 7.221 23.322 0 23.322-71.154 0-152.838 10.427-219.931 70.241 38.21 7.409 76.871-16.737 114.93-23.047 46.483-7.957 94.17-1.921 140.954-1.921 6.168 0 7.823 20.578 1.505 22.773-113.426 40.06-234.373 15.64-342.533 103.99 97.781 9.603 195.561-21.127 293.191-21.95 6.619 0 7.221 18.657 1.504 23.047-90.108 71.339-191.349 53.779-278.599 139.659 54.005 11.524 109.063-17.56 162.466-27.438 65.438-12.347 132.982-27.438 198.57-15.639 6.017 0 7.973 19.755 1.504 23.048-106.957 54.875-219.479 54.875-324.781 123.196 138.397 9.877 276.342-24.694 414.438-38.413-15.977-15.873-33.091-27.602-50.845-34.847-5.115-2.743-5.566-20.029 0-22.499 116.133-50.485 236.328-36.492 352.461-84.508-62.279-15.366-124.407-38.688-186.987-44.45-62.579-5.762-124.707 10.152-183.376-35.669-1.186-.979-2.192-2.56-2.898-4.555-.706-1.996-1.081-4.32-1.081-6.694 0-2.375.375-4.699 1.081-6.694s1.712-3.577 2.898-4.556C644.6-95.15 794.881 24.753 934.181-71.28c-120.345-3.567-152.839-31.279-222.789-35.669-90.259-5.488-7.823-20.579-1.505-23.048 127.888-45.208 258.017-65.899 388.263-61.735 35.2 0 70.25 3.567 105.3 2.469 35.91-1.946 71.68-9.103 106.96-21.401l10.98-3.567c-72.51 2.195-156.45 6.31-198.57 3.018-77.02-7.957-169.685-26.066-247.307-26.066-77.623 0-319.818 43.901-433.243 37.59-113.426-6.311-155.396 0-236.027-31.279-18.423-6.482-37.072-10.607-55.811-12.347 84.844 40.059 170.891 74.631 258.893 75.728Z" opacity=".9" style="mix-blend-mode:screen"/><path fill="url(#k)" d="M263.857-47.409C175.704-38.08 82.737-17.776 0-71.006V123.53C41.52 52.465 98.232 20.363 149.078-3.783c38.059-18.109 76.569-30.73 114.779-43.626Z" opacity=".3" style="mix-blend-mode:multiply"/><path fill="url(#l)" d="M1405.78-178.288c-31.49 1.431-62.99-.861-94.32-6.859-35.17-8.085-70.67-10.29-106.05-6.585-39.57 7.134 127.86-18.384-99.89 115.788C958.247 11.857 914.321-21.892 636.474 2.802 745.537 17.345 770.81 48.35 964.866 46.154c4.964 0 3.46 18.11-1.203 21.402-41.67 27.438-84.392 46.37-126.964 66.948 11.576 1.505 23.055 4.903 34.298 10.152 1.186.979 2.192 2.561 2.898 4.556s1.081 4.319 1.081 6.694c0 2.374-.375 4.698-1.081 6.694-.706 1.995-1.712 3.577-2.898 4.555-126.062 58.717-258.592-5.487-383.45 64.754 36.163 24.295 73.55 42.033 111.62 52.955 22.414-10.701 43.625-10.426 66.641-17.286-5.114-5.762-11.432-6.585-16.998-11.798 10.68 0 21.662 8.78 32.643 9.603 7.221 0 15.043-1.646 21.662 0 10.504 2.842 21.137 3.761 31.741 2.744-2.407-10.427-16.096-14.817-21.812-15.091 15.043 0 32.343 11.798 45.129 0-5.265-7.957-12.636-13.445-18.804-21.127 22.215 3.319 44.515 4.327 66.792 3.018 22.113-3.567 45.129 7.134 66.942-9.878-7.221-5.762-16.247-5.762-23.166-11.798 9.477 0 33.245 13.445 38.209-5.762-4.663-4.939-9.928-1.372-15.043-6.036 6.469 0 27.078-4.39 26.326-21.951-4.814-4.664-20.158-8.78-20.459-18.657 18.954-7.409 38.661-2.744 57.916-10.152 9.778-3.567 19.255-6.86 29.184-9.329 6.92-1.646 15.043 0 19.857-13.17-3.569-1.412-6.945-4.118-9.929-7.957 3.201-.316 6.295-2.221 8.946-5.51 2.651-3.288 4.759-7.834 6.097-13.148-2.106 0-3.309-3.293-5.265-3.841 8.902-11.48 18.254-21.75 27.984-30.73 9.77-5.763 20.15 0 30.08-6.586 15.05-9.603 30.99-7.134 43.48-30.456-4.97-10.975-16.25 0-22.87-7.134 5.09-.017 10.15-1.31 15.05-3.841-2.71-3.841-8.73 0-11.74-4.665 3.01-2.195 4.82-5.213 8.28-3.84-9.92-4.416-19.97-7.806-30.09-10.153 4.85-3.063 9.91-4.91 15.04-5.487 11.13-4.94 21.06-16.738 32.04-21.95 8.13-3.842 31.74-5.488 36.56-21.128-5.9-4.628-12.23-7.143-18.65-7.408 9.32-7.957 21.36 4.664 30.08-5.762-3.91 0-8.12 1.646-10.98-3.841 12.79-8.506 24.07-4.116 36.56-17.835 9.32-7.538 18.32-16.343 26.92-26.34-3.49-2.521-7.22-3.824-10.98-3.842 26.93 0 52.95-6.036 79.88-6.036 15.04 0 44.08 7.957 53.55-15.091-5.34-1.444-10.47-4.902-15.04-10.152 12.71 1.606 25.48-.15 37.91-5.213-3.72-2.098-7.55-3.387-11.43-3.841 11.28-11.25 34.45-2.47 47.83-2.47 13.39 0 38.97 5.213 45.13-21.127-5.26-1.098-10.68.549-14.59-1.098Z" opacity=".3" style="mix-blend-mode:multiply"/><path fill="url(#m)" d="M518.688 333.703c5.286 2.103 10.685 3.115 16.096 3.018a60.706 60.706 0 0 0 0-4.939c-5.867.275-10.982 1.098-16.096 1.921Z" opacity=".3" style="mix-blend-mode:multiply"/><path fill="url(#n)" d="M505.45 336.447c-20.158 4.664-40.316 10.426-60.173 15.365 3.65 1.808 7.372 3.093 11.132 3.842 10.38 1.646 20.76 0 31.14 3.018 13.99 2.469 27.378 5.762 41.368 6.585-6.619-4.116-21.211-14.817-23.467-28.81Z" opacity=".3" style="mix-blend-mode:multiply"/><path fill="url(#o)" d="M435.199 354.007c-11.734 2.469-23.317 4.39-34.901 5.488-25.289 6.106-51.013-.34-74.463-18.658-1.271-1.657-2.18-4.082-2.566-6.843-.385-2.762-.222-5.684.46-8.248-40.918 5.762-81.685 5.762-122.301 15.914-40.617 10.152-87.1 30.182-126.212-7.134-4.212-3.841-3.16-15.639 0-20.029 88.153-128.959 211.507-48.291 310.491-116.337-81.779 1.531-163.424 12.436-244.452 32.651-48.831 13.375-98.7-4.255-141.255-49.937v324.041c3.483-2.16 7.054-3.811 10.68-4.938 16.42-3.585 32.966-4.869 49.493-3.842 10.093-.1 20.162-1.845 30.086-5.213 6.469-2.195 18.503 0 23.618-9.603-6.912-7.29-14.288-13.003-21.963-17.012 0-1.372-.903-8.231-1.053-9.054 6.95.291 13.885 1.391 20.759 3.292 10.53 0 20.609-3.018 30.989-3.018 15.034 4.208 30.376 2.902 45.13-3.841-3.761-12.896-20.91-23.871-27.83-30.73 11.884 1.646 24.971 12.347 37.156 16.188 14.237 2.797 28.561 3.805 42.873 3.018-7.521-8.231-15.945-12.073-23.166-21.402a97.445 97.445 0 0 1 25.272 0c20.008 0 39.564-4.664 60.173-6.31 14.298-4.559 28.851-5.85 43.324-3.842 7.104 4.187 14.5 6.497 21.963 6.86-7.22-15.64-25.723-17.012-30.086-36.767 7.804-.71 15.627.21 23.317 2.744 12.636 0 24.972 0 37.457-3.018 10.079-1.372 20.609-2.47 30.087-3.293 9.477-.823 15.043 9.329 22.865 5.762-3.182-12.422-8.906-22.076-15.945-26.889Z" opacity=".3" style="mix-blend-mode:multiply"/><g opacity=".2" style="mix-blend-mode:multiply"><path fill="url(#p)" d="M990.892 103.225c-40.357 33.029-83.592 52.813-127.717 58.443.059 2.276-.199 4.542-.752 6.585-21.963 63.107-79.277 50.76-111.169 48.016-18.954-1.646-38.51-6.036-58.217-9.877a275.827 275.827 0 0 1 34.449 13.17c6.318 2.744 4.814 23.048-1.354 23.048-83.038 0-165.475 16.462-248.062 29.358 18.503 9.603 37.157 22.225 55.66 35.121 4.924 2.119 10.005 2.768 15.043 1.92 14.038-3.453 27.816-9.804 41.068-18.932 25.053-11.651 50.629-19.181 76.419-22.499-5.114-5.762-11.433-6.585-16.999-11.798 10.681 0 21.663 8.78 32.644 9.603 7.221 0 15.043-1.646 21.662 0 10.504 2.842 21.137 3.761 31.741 2.744-2.407-10.427-16.096-14.817-21.812-15.091 15.043 0 32.343 11.798 45.129 0-5.265-7.957-12.636-13.445-18.804-21.127 22.215 3.319 44.515 4.327 66.792 3.018 22.113-3.567 45.129 7.134 66.942-9.878-7.221-5.762-16.247-5.762-23.167-11.798 9.478 0 33.246 13.445 38.21-5.762-4.663-4.939-9.928-1.372-15.043-6.036 6.468 0 27.078-4.39 26.325-21.951-4.813-4.664-20.157-8.78-20.458-18.657 18.954-7.409 38.661-2.744 57.916-10.152 9.778-3.567 19.255-6.86 29.184-9.329 6.92-1.647 15.043 0 19.857-13.17-3.569-1.412-6.945-4.118-9.929-7.957 3.031-.151 5.98-1.817 8.527-4.817 2.547-3 4.593-7.219 5.915-12.195Z"/><path fill="url(#q)" d="M1412.25-177.465c-54.45 20.03-112.52 3.293-168.93-3.018 3.46 1.921 6.77 4.39 10.08 6.86 1.23.94 2.28 2.523 3.02 4.549.73 2.026 1.13 4.404 1.13 6.837s-.4 4.812-1.13 6.838c-.74 2.026-1.79 3.608-3.02 4.549-60.18 32.102-122.76 21.402-183.68 31.554l-13.39 2.195c14.98 4.546 29.49 13.244 43.02 25.791 4.82 4.665 2.86 18.658-1.35 21.402-45.13 31.279-92.67 33.2-139.299 48.84 26.326 12.895 56.109-3.842 82.589 9.877 1.11.846 2.07 2.216 2.8 3.97.72 1.754 1.17 3.827 1.31 6.007.14 2.18-.04 4.388-.53 6.396-.48 2.008-1.25 3.743-2.23 5.028-53.401 57.62-117.485 24.146-174.499 20.579-73.862-4.665-150.431-35.944-224.594-15.365 114.93 61.186 237.08 7.408 352.912 60.637.687.374 1.323 1.006 1.868 1.857.544.851.984 1.901 1.291 3.082 4.632-6.203 9.692-11.276 15.042-15.09 9.78-5.763 20.16 0 30.09-6.586 15.04-9.603 30.99-7.134 43.47-30.456-4.96-10.975-16.24 0-22.86-7.134 5.08-.017 10.15-1.31 15.04-3.841-2.71-3.841-8.72 0-11.73-4.664 3.01-2.195 4.81-5.214 8.27-3.842-9.92-4.415-19.96-7.805-30.09-10.152 4.86-3.063 9.92-4.91 15.05-5.487 11.13-4.94 21.06-16.737 32.04-21.95 8.12-3.842 31.74-5.488 36.55-21.128-5.9-4.627-12.23-7.142-18.65-7.408 9.33-7.957 21.36 4.664 30.09-5.762-3.91 0-8.13 1.646-10.98-3.841 12.78-8.506 24.06-4.116 36.55-17.835 9-7.257 17.7-15.693 26.02-25.243-3.49-2.521-7.22-3.823-10.98-3.841 26.93 0 52.96-6.036 79.88-6.036 15.05 0 44.08 7.957 53.56-15.091-5.35-1.445-10.47-4.902-15.05-10.152 12.71 1.605 25.48-.151 37.91-5.213-3.71-2.098-7.55-3.388-11.43-3.842 11.28-11.249 34.45-2.469 47.84-2.469 13.38 0 38.96 5.213 45.13-21.127-2.7-.668-5.42-.76-8.13-.275Z"/><path fill="url(#r)" d="M18.052 422.053c-.935-1.331-1.666-3.078-2.124-5.073-.458-1.995-.627-4.172-.49-6.32.135-2.149.571-4.198 1.266-5.95.695-1.753 1.625-3.15 2.702-4.058 16.998-8.506 33.997-14.817 51.146-21.951-10.29-6.085-20.95-9.863-31.74-11.249-1.287-.44-2.476-1.552-3.423-3.199-.948-1.647-1.613-3.76-1.915-6.083a22.122 22.122 0 0 1 .21-7.004c.44-2.248 1.229-4.216 2.27-5.664 37.607-42.529 236.026-108.38 430.685-164.628-39.714 0-78.977 8.232-118.54 15.64-39.564 7.408-75.968 7.957-114.178 11.524-62.73 6.036-133.583 27.438-193.605-20.579-.983-.805-1.85-2.017-2.53-3.541-.681-1.524-1.157-3.316-1.391-5.235a22.8 22.8 0 0 1 .044-5.816c.263-1.906.766-3.674 1.47-5.163 22.264-43.077 51.447-46.096 78.375-65.028-24.757-5.602-49.179-15.338-72.96-29.084-1.076-.908-2.006-2.305-2.701-4.058-.695-1.752-1.131-3.801-1.267-5.95-.136-2.148.033-4.325.49-6.32.459-1.995 1.19-3.742 2.124-5.073C97.18-11.191 162.316-8.721 222.488-30.123c37.608-13.445 75.216-27.438 112.674-42.803C246.858-61.402 157.351-49.33 73.411-106.95c-.995-.777-1.876-1.97-2.573-3.481-.696-1.511-1.189-3.299-1.437-5.22a22.813 22.813 0 0 1 .005-5.843c.252-1.919.748-3.704 1.447-5.211 20.158-37.59 50.244-43.352 76.419-43.352 35.803 0 71.455 11.524 107.258 10.426 42.09-3.239 83.696-17.659 123.504-42.803-57.64 2.238-115.243-6.962-171.792-27.438C151.635-252.095 56.111-246.608 0-242.218v747.134c3.483-2.161 7.054-3.812 10.68-4.939 16.42-3.584 32.966-4.868 49.493-3.841 10.093-.101 20.162-1.846 30.086-5.214 6.469-2.195 18.503 0 23.618-9.603-33.29-11.588-65.537-31.533-95.825-59.266Z"/></g><path fill="url(#s)" d="M1161.78 251.938c35.2 41.157 83.64 34.023 121.85 29.359h5.27c-11.44-2.47-22.87-5.488-34.3-9.604-30.28-14.508-61.52-21.158-92.82-19.755Z" opacity=".2" style="mix-blend-mode:multiply"/><path fill="url(#t)" d="M1394.5 184.99c-47.39-1.921-94.92-14.542-141.71-22.225-46.78-7.683-107.55-40.882-153.89-1.372 32.9 24.013 68.27 34.596 103.65 31.005h114.93c25.72 0 51.45-4.664 77.02-7.408Z" opacity=".2" style="mix-blend-mode:multiply"/><path fill="url(#u)" d="M1401.57 123.803c-32.49-6.585-65.29-7.682-97.93-8.505h-31.14c53.68 15.264 108.03 21.144 162.32 17.56-10.96-4.439-22.07-7.465-33.25-9.055Z" opacity=".2" style="mix-blend-mode:multiply"/></g></g><defs><radialGradient id="c" cx="0" cy="0" r="1" gradientTransform="matrix(879.443 0 0 1834.7 692.531 951.399)" gradientUnits="userSpaceOnUse"><stop stop-color="#FDE9AD"/><stop offset=".51" stop-color="#F5B486"/><stop offset="1" stop-color="#4F3342"/></radialGradient><radialGradient id="d" cx="0" cy="0" r="1" gradientTransform="matrix(879.673 0 0 1835.18 692.532 951.398)" gradientUnits="userSpaceOnUse"><stop stop-color="#FDE9AD"/><stop offset=".51" stop-color="#F5B486"/><stop offset="1" stop-color="#4F3342"/></radialGradient><radialGradient id="e" cx="0" cy="0" r="1" gradientTransform="matrix(876.682 0 0 1828.94 693.221 948.518)" gradientUnits="userSpaceOnUse"><stop stop-color="#FDE9AD"/><stop offset=".51" stop-color="#F5B486"/><stop offset="1" stop-color="#4F3342"/></radialGradient><radialGradient id="f" cx="0" cy="0" r="1" gradientTransform="matrix(879.443 0 0 1834.7 692.531 951.399)" gradientUnits="userSpaceOnUse"><stop stop-color="#FDE9AD"/><stop offset=".51" stop-color="#F5B486"/><stop offset="1" stop-color="#4F3342"/></radialGradient><radialGradient id="g" cx="0" cy="0" r="1" gradientTransform="matrix(880.22 0 0 1834.7 693.144 951.399)" gradientUnits="userSpaceOnUse"><stop stop-color="#FDE9AD"/><stop offset=".51" stop-color="#F5B486"/><stop offset="1" stop-color="#4F3342"/></radialGradient><radialGradient id="j" cx="0" cy="0" r="1" gradientTransform="matrix(533.281 0 0 1112.54 729.818 45.331)" gradientUnits="userSpaceOnUse"><stop offset=".8" stop-color="#8FD930"/><stop offset=".9" stop-color="#548408"/><stop offset="1" stop-color="#495832"/></radialGradient><radialGradient id="k" cx="0" cy="0" r="1" gradientTransform="matrix(533.281 0 0 1112.54 729.817 45.331)" gradientUnits="userSpaceOnUse"><stop offset=".29" stop-color="#8FD930"/><stop offset=".61" stop-color="#548408"/><stop offset="1" stop-color="#495832"/></radialGradient><radialGradient id="l" cx="0" cy="0" r="1" gradientTransform="matrix(533.281 0 0 1112.54 729.815 45.331)" gradientUnits="userSpaceOnUse"><stop offset=".29" stop-color="#8FD930"/><stop offset=".61" stop-color="#548408"/><stop offset="1" stop-color="#495832"/></radialGradient><radialGradient id="m" cx="0" cy="0" r="1" gradientTransform="matrix(533.972 0 0 1113.98 730.047 44.37)" gradientUnits="userSpaceOnUse"><stop offset=".29" stop-color="#8FD930"/><stop offset=".61" stop-color="#548408"/><stop offset="1" stop-color="#495832"/></radialGradient><radialGradient id="n" cx="0" cy="0" r="1" gradientTransform="matrix(533.281 0 0 1112.54 729.817 45.331)" gradientUnits="userSpaceOnUse"><stop offset=".29" stop-color="#8FD930"/><stop offset=".61" stop-color="#548408"/><stop offset="1" stop-color="#495832"/></radialGradient><radialGradient id="o" cx="0" cy="0" r="1" gradientTransform="matrix(519.472 0 0 1083.73 729.817 80.383)" gradientUnits="userSpaceOnUse"><stop offset=".29" stop-color="#8FD930"/><stop offset=".61" stop-color="#548408"/><stop offset="1" stop-color="#495832"/></radialGradient><radialGradient id="p" cx="0" cy="0" r="1" gradientTransform="matrix(533.281 0 0 1112.54 729.816 45.331)" gradientUnits="userSpaceOnUse"><stop offset=".11" stop-color="#8FD930"/><stop offset=".43" stop-color="#548408"/><stop offset="1" stop-color="#495832"/></radialGradient><radialGradient id="q" cx="0" cy="0" r="1" gradientTransform="matrix(533.281 0 0 1112.54 729.818 45.33)" gradientUnits="userSpaceOnUse"><stop offset=".11" stop-color="#8FD930"/><stop offset=".43" stop-color="#548408"/><stop offset="1" stop-color="#495832"/></radialGradient><radialGradient id="r" cx="0" cy="0" r="1" gradientTransform="matrix(533.281 0 0 1112.54 729.817 45.331)" gradientUnits="userSpaceOnUse"><stop offset=".11" stop-color="#8FD930"/><stop offset=".43" stop-color="#548408"/><stop offset="1" stop-color="#495832"/></radialGradient><linearGradient id="h" x1="397.591" x2="1363.87" y1="738.137" y2="-97.426" gradientUnits="userSpaceOnUse"><stop stop-color="#00A333"/><stop offset=".43" stop-color="#B7F400"/><stop offset="1" stop-color="#BBB04C"/></linearGradient><linearGradient id="i" x1="397.591" x2="1363.87" y1="738.137" y2="-97.426" gradientUnits="userSpaceOnUse"><stop stop-color="#00A333"/><stop offset=".43" stop-color="#B7F400"/><stop offset="1" stop-color="#BBB04C"/></linearGradient><linearGradient id="s" x1="1225.26" x2="1225.26" y1="-203.805" y2="1345.89" gradientUnits="userSpaceOnUse"><stop stop-color="#246087"/><stop offset=".18" stop-color="#41A8A1"/><stop offset=".45" stop-color="#1E8BB6"/><stop offset=".99" stop-color="#8DB09E"/></linearGradient><linearGradient id="t" x1="1246.78" x2="1246.78" y1="-203.531" y2="1345.06" gradientUnits="userSpaceOnUse"><stop stop-color="#246087"/><stop offset=".18" stop-color="#41A8A1"/><stop offset=".45" stop-color="#1E8BB6"/><stop offset=".99" stop-color="#8DB09E"/></linearGradient><linearGradient id="u" x1="1353.73" x2="1353.73" y1="-203.256" y2="1344.24" gradientUnits="userSpaceOnUse"><stop stop-color="#246087"/><stop offset=".18" stop-color="#41A8A1"/><stop offset=".45" stop-color="#1E8BB6"/><stop offset=".99" stop-color="#8DB09E"/></linearGradient><clipPath id="a"><path fill="#fff" d="M0 0h1439v919H0z"/></clipPath><clipPath id="b"><path fill="#fff" d="M0 0h1440v919H0z"/></clipPath></defs></svg>